# xmcd CD database file
# Copyright (C) 1993-1996 Ti Kan
#
# Track frame offsets:
#	150
#	17117
#	43542
#	61672
#	85915
#	103467
#	124190
#	138915
#	162892
#	177630
#	196860
#	215302
#	228957
#	240920
#	259362
#	267677
#
# Disc length: 3897 seconds
#
# Revision: 1
# Processed by: cddbd v1.4b41PL1 Copyright (c) Steve Scherf et al.
# Submitted via: EasyCD2 v3.00 - Copyright (c) 1997 Greg Leichner
#
DISCID=e10f3710
DTITLE=Kingsway - Worhsip Him
DYEAR=1900
DGENRE=
TTITLE0=You are the light
TTITLE1=Always
TTITLE2=Worthy is the Lamb
TTITLE3=Might wave, a might wind
TTITLE4=Lamb of God
TTITLE5=You laid aside Your majesty
TTITLE6=I worship you
TTITLE7=I love You
TTITLE8=Salvation belongs to our God
TTITLE9=All nations
TTITLE10=Above all else/ we shall conquer
TTITLE11=I've got a feelin'
TTITLE12=All heaven declares
TTITLE13=The steadfast love of the Lord
TTITLE14=Alleluia, alleluia
TTITLE15=Be still/ we are standing
EXTD=
EXTT0=
EXTT1=
EXTT2=
EXTT3=
EXTT4=
EXTT5=
EXTT6=
EXTT7=
EXTT8=
EXTT9=
EXTT10=
EXTT11=
EXTT12=
EXTT13=
EXTT14=
EXTT15=
PLAYORDER=
